#!OML:ASF H:\Punching\Project 1\Capture day 1\Session 1\female.ASF
:FULLY-SPECIFIED
:DEGREES
1750
root 2.26101 15.9474 3.80609 15.2165 -15.9589 5.27863
lowerback 3.1763 -1.80109 -8.15705
upperback -3.64084 -2.90953 -0.328782
thorax -5.21505 -1.1353 4.43878
lowerneck -11.0342 5.67979 13.7362
upperneck 34.0632 6.33039 -5.14782
head 14.1606 3.77046 -3.51907
rclavicle 5.91136e-014 -1.73937e-014
rhumerus -42.7044 -11.4731 -67.8481
rradius 31.0093
rwrist 3.52312
rhand -8.13092 -10.094
rfingers 7.12502
rthumb 17.7829 -39.3009
lclavicle 5.91136e-014 -1.73937e-014
lhumerus -24.7974 -8.03225 87.1399
lradius 56.4349
lwrist -4.13462
lhand -10.0106 16.0198
lfingers 7.12502
lthumb 15.9735 45.3812
rfemur -33.5049 4.37917 -2.8719
rtibia 39.8509
rfoot -13.1999 -7.58248
rtoes -11.6703
lfemur -21.2641 -11.4533 -22.9614
ltibia 10.0946
lfoot -4.39775 27.8628
ltoes 7.6471
1751
root 2.21608 15.941 3.80427 15.1365 -15.6531 5.38742
lowerback 3.1077 -1.8738 -8.15615
upperback -3.7059 -3.00268 -0.307106
thorax -5.23114 -1.17873 4.46527
lowerneck -11.0672 5.64676 13.6207
upperneck 34.1376 6.31896 -5.17085
head 14.1939 3.75012 -3.51205
rclavicle -2.4612e-014 1.08338e-014
rhumerus -42.502 -11.2785 -68.2724
rradius 31.2111
rwrist 3.36334
rhand -8.31972 -10.0098
rfingers 7.12502
rthumb 17.6012 -39.2331
lclavicle -2.4612e-014 1.08338e-014
lhumerus -24.239 -6.81793 86.8812
lradius 54.0841
lwrist -5.26956
lhand -10.8837 16.0778
lfingers 7.12502
lthumb 15.1325 45.5045
rfemur -32.8314 4.67306 -2.93043
rtibia 38.8988
rfoot -13.7628 -8.31359
rtoes -11.7094
lfemur -21.2858 -11.287 -22.9766
ltibia 10.298
lfoot -4.38156 27.4222
ltoes 7.23589
1752
root 2.16885 15.9342 3.80405 15.0133 -15.3811 5.46362
lowerback 3.04918 -1.92495 -8.11804
upperback -3.74638 -3.0647 -0.291442
thorax -5.2328 -1.20958 4.46252
lowerneck -11.1096 5.6117 13.5028
upperneck 34.217 6.30281 -5.18979
head 14.2307 3.7279 -3.50364
rclavicle 1.03368e-014 -1.6847e-014
rhumerus -42.2696 -11.0691 -68.7249
rradius 31.4004
rwrist 3.28523
rhand -8.43945 -9.9489
rfingers 7.12502
rthumb 17.486 -39.1825
lclavicle 1.03368e-014 -1.6847e-014
lhumerus -23.7909 -5.59986 86.5998
lradius 51.9167
lwrist -6.31867
lhand -11.6061 16.2578
lfingers 7.12502
lthumb 14.4365 45.7357
rfemur -32.0944 5.00861 -2.92955
rtibia 37.9642
rfoot -14.3066 -8.99997
rtoes -11.7582
lfemur -21.2638 -11.1643 -22.9441
ltibia 10.5572
lfoot -4.44746 27.066
ltoes 6.87126
1753
root 2.11954 15.9271 3.80428 14.8822 -15.1366 5.51384
lowerback 2.97864 -1.95819 -8.04538
upperback -3.77851 -3.09951 -0.282349
thorax -5.22413 -1.22915 4.43112
lowerneck -11.1498 5.57191 13.3825
upperneck 34.295 6.28039 -5.20688
head 14.2657 3.70292 -3.49511
rclavicle 2.45499e-014 6.01324e-015
rhumerus -42.0185 -10.8385 -69.2029
rradius 31.5811
rwrist 3.28377
rhand -8.49458 -9.89645
rfingers 7.12502
rthumb 17.4329 -39.1347
lclavicle 2.45499e-014 6.01324e-015
lhumerus -23.464 -4.42136 86.2983
lradius 49.9595
lwrist -7.2357
lhand -12.2077 16.5563
lfingers 7.12502
lthumb 13.8568 46.0747
rfemur -31.3378 5.3669 -2.88024
rtibia 37.0533
rfoot -14.8163 -9.63532
rtoes -11.815
lfemur -21.2453 -11.0686 -22.8671
ltibia 10.8688
lfoot -4.57424 26.7666
ltoes 6.53472
1754
root 2.06819 15.9196 3.80574 14.7319 -14.9409 5.5417
lowerback 2.89383 -1.96777 -7.94279
upperback -3.79782 -3.09948 -0.2824
thorax -5.20005 -1.23383 4.37036
lowerneck -11.1863 5.52765 13.2589
upperneck 34.3684 6.25368 -5.22552
head 14.297 3.67539 -3.48731
rclavicle 4.24902e-014 3.11098e-014
rhumerus -41.749 -10.5779 -69.7076
rradius 31.7581
rwrist 3.36251
rhand -8.47145 -9.86297
rfingers 7.12502
rthumb 17.4552 -39.0993
lclavicle 4.24902e-014 3.11098e-014
lhumerus -23.2684 -3.32125 85.9817
lradius 48.2267
lwrist -7.98349
lhand -12.7022 16.9509
lfingers 7.12502
lthumb 13.3802 46.5012
rfemur -30.5627 5.75475 -2.78799
rtibia 36.1736
rfoot -15.2828 -10.2045
rtoes -11.9044
lfemur -21.2071 -11.0143 -22.7485
ltibia 11.2192
lfoot -4.7676 26.5592
ltoes 6.2428
1755
root 2.01485 15.9119 3.80758 14.5861 -14.7906 5.5577
lowerback 2.77802 -1.95494 -7.81735
upperback -3.81292 -3.06588 -0.295186
thorax -5.15973 -1.22385 4.28004
lowerneck -11.2205 5.47682 13.1337
upperneck 34.4373 6.21935 -5.24692
head 14.3249 3.64399 -3.48159
rclavicle 2.42486e-014 -2.31336e-014
rhumerus -41.4708 -10.281 -70.2444
rradius 31.949
rwrist 3.5118
rhand -8.39741 -9.82497
rfingers 7.12502
rthumb 17.5264 -39.0549
lclavicle 2.42486e-014 -2.31336e-014
lhumerus -23.2031 -2.33323 85.6522
lradius 46.724
lwrist -8.54012
lhand -13.0927 17.4005
lfingers 7.12502
lthumb 13.0038 46.9752
rfemur -29.8043 6.15859 -2.66756
rtibia 35.3357
rfoot -15.7008 -10.713
rtoes -12.0498
lfemur -21.172 -10.9983 -22.5952
ltibia 11.5849
lfoot -5.00068 26.4344
ltoes 5.9884
1756
root 1.95948 15.904 3.80898 14.4581 -14.6731 5.5741
lowerback 2.63467 -1.92699 -7.68351
upperback -3.83742 -3.01041 -0.318483
thorax -5.11715 -1.20342 4.17192
lowerneck -11.2436 5.41967 13.0088
upperneck 34.506 6.18068 -5.27739
head 14.35 3.60978 -3.48064
rclavicle -6.33626e-016 9.49818e-015
rhumerus -41.1948 -9.93852 -70.809
rradius 32.155
rwrist 3.71882
rhand -8.27881 -9.79872
rfingers 7.12502
rthumb 17.6406 -39.0185
lclavicle -6.33626e-016 9.49818e-015
lhumerus -23.268 -1.49098 85.3124
lradius 45.4402
lwrist -8.86795
lhand -13.3883 17.8771
lfingers 7.12502
lthumb 12.7188 47.4697
rfemur -29.0788 6.55684 -2.529
rtibia 34.5483
rfoot -16.0658 -11.1795
rtoes -12.3221
lfemur -21.1519 -11.0088 -22.4205
ltibia 11.9441
lfoot -5.24612 26.3662
ltoes 5.75551
1757
root 1.90207 15.8962 3.80969 14.3557 -14.5808 5.59756
lowerback 2.4625 -1.88665 -7.54704
upperback -3.87356 -2.9372 -0.353068
thorax -5.07303 -1.1743 4.04881
lowerneck -11.2662 5.35688 12.8869
upperneck 34.5742 6.13669 -5.31723
head 14.3747 3.57249 -3.48499
rclavicle -1.45975e-014 -7.94704e-014
rhumerus -40.927 -9.54297 -71.4034
rradius 32.3937
rwrist 3.96012
rhand -8.12259 -9.76997
rfingers 7.12502
rthumb 17.7909 -38.9761
lclavicle -1.45975e-014 -7.94704e-014
lhumerus -23.4491 -0.799269 84.9639
lradius 44.3626
lwrist -8.97794
lhand -13.5771 18.3389
lfingers 7.12502
lthumb 12.5369 47.9428
rfemur -28.3968 6.93715 -2.3779
rtibia 33.8179
rfoot -16.3943 -11.6252
rtoes -12.7637
lfemur -21.1488 -11.0483 -22.23
ltibia 12.2766
lfoot -5.48841 26.3499
ltoes 5.54289
1758
root 1.84259 15.8882 3.81 14.2659 -14.5094 5.63478
lowerback 2.27434 -1.83596 -7.4163
upperback -3.92166 -2.85063 -0.398313
thorax -5.03398 -1.13803 3.91697
lowerneck -11.2809 5.28929 12.7694
upperneck 34.6433 6.09007 -5.36905
head 14.3983 3.53327 -3.49576
rclavicle -4.42513e-014 -2.57799e-014
rhumerus -40.6804 -9.07833 -72.027
rradius 32.6779
rwrist 4.20219
rhand -7.94091 -9.74604
rfingers 7.12502
rthumb 17.9657 -38.9363
lclavicle -4.42513e-014 -2.57799e-014
lhumerus -23.7357 -0.261499 84.6056
lradius 43.4674
lwrist -8.88441
lhand -13.6482 18.7533
lfingers 7.12502
lthumb 12.4683 48.3614
rfemur -27.7437 7.29357 -2.21581
rtibia 33.1444
rfoot -16.7051 -12.076
rtoes -13.3912
lfemur -21.1439 -11.1086 -22.0371
ltibia 12.5763
lfoot -5.72244 26.3728
ltoes 5.33748
1759
root 1.7809 15.8803 3.80923 14.1977 -14.4463 5.68911
lowerback 2.07025 -1.78062 -7.30013
upperback -3.98386 -2.75864 -0.450675
thorax -5.00071 -1.0981 3.78563
lowerneck -11.2968 5.21871 12.6514
upperneck 34.7163 6.04227 -5.42895
head 14.4242 3.4925 -3.51011
rclavicle -2.91592e-014 -4.0229e-014
rhumerus -40.4506 -8.54833 -72.6754
rradius 33.0071
rwrist 4.41752
rhand -7.74852 -9.72412
rfingers 7.12502
rthumb 18.1508 -38.8972
lclavicle -2.91592e-014 -4.0229e-014
lhumerus -24.1029 0.132078 84.2385
lradius 42.7182
lwrist -8.63467
lhand -13.6021 19.0846
lfingers 7.12502
lthumb 12.5127 48.6899
rfemur -27.1306 7.62095 -2.04453
rtibia 32.5237
rfoot -16.9868 -12.5745
rtoes -14.2087
lfemur -21.1488 -11.1849 -21.8432
ltibia 12.8347
lfoot -5.93398 26.4176
ltoes 5.1332
